<svg xmlns="http://www.w3.org/2000/svg" viewBox="0 0 1200 1500" preserveAspectRatio="xMidYMid slice" role="img" aria-label="Cyclades — series cover, white wall &amp; staircase">
  <defs>
    <linearGradient id="s1sky" x1="0" y1="0" x2="0" y2="1">
      <stop offset="0" stop-color="#d6d6d6"/>
      <stop offset="1" stop-color="#f0f0f0"/>
    </linearGradient>
    <pattern id="s1g" width="160" height="160" patternUnits="userSpaceOnUse">
      <filter id="s1n"><feTurbulence baseFrequency="0.95" numOctaves="2"/><feColorMatrix values="0 0 0 0 0  0 0 0 0 0  0 0 0 0 0  0 0 0 0.18 0"/></filter>
      <rect width="160" height="160" filter="url(#s1n)"/>
    </pattern>
  </defs>
  <rect width="1200" height="1500" fill="url(#s1sky)"/>
  <!-- white wall -->
  <path d="M0 600 L1200 540 L1200 1500 L0 1500 Z" fill="#fafafa"/>
  <!-- shadow on wall -->
  <path d="M120 700 L900 660 L900 1500 L120 1500 Z" fill="#e8e8e8"/>
  <!-- doorway opening -->
  <rect x="380" y="780" width="220" height="380" fill="#1a1a1a"/>
  <rect x="380" y="780" width="220" height="380" fill="none" stroke="#0a0a0a" stroke-width="2"/>
  <!-- doorframe shadow -->
  <rect x="370" y="780" width="240" height="6" fill="#3a3a3a"/>
  <!-- staircase steps -->
  <g fill="#cfcfcf">
    <rect x="650" y="1100" width="500" height="40"/>
    <rect x="700" y="1140" width="500" height="40"/>
    <rect x="750" y="1180" width="450" height="40"/>
    <rect x="800" y="1220" width="400" height="40"/>
    <rect x="850" y="1260" width="350" height="40"/>
  </g>
  <g fill="#9a9a9a" opacity="0.4">
    <rect x="650" y="1095" width="500" height="6"/>
    <rect x="700" y="1135" width="500" height="6"/>
    <rect x="750" y="1175" width="450" height="6"/>
    <rect x="800" y="1215" width="400" height="6"/>
    <rect x="850" y="1255" width="350" height="6"/>
  </g>
  <!-- railing line -->
  <line x1="640" y1="1080" x2="1200" y2="900" stroke="#1a1a1a" stroke-width="3"/>
  <circle cx="700" cy="1060" r="6" fill="#1a1a1a"/>
  <circle cx="820" cy="1020" r="6" fill="#1a1a1a"/>
  <circle cx="940" cy="980" r="6" fill="#1a1a1a"/>
  <circle cx="1060" cy="940" r="6" fill="#1a1a1a"/>
  <!-- chair silhouette in shadow -->
  <g fill="#1a1a1a" opacity="0.85">
    <rect x="180" y="1100" width="60" height="200"/>
    <rect x="170" y="1080" width="80" height="40"/>
  </g>
  <!-- flowerpot -->
  <ellipse cx="280" cy="1420" rx="40" ry="10" fill="#3a3a3a"/>
  <rect x="252" y="1340" width="56" height="80" fill="#5a5a5a"/>
  <ellipse cx="280" cy="1340" rx="28" ry="10" fill="#7a7a7a"/>
  <path d="M270 1340 Q260 1280 268 1240 M280 1340 Q284 1270 290 1230 M290 1340 Q300 1290 296 1250" stroke="#2a2a2a" stroke-width="3" fill="none"/>
  <rect width="1200" height="1500" fill="url(#s1g)"/>
</svg>
